<svg width="29" height="29" viewBox="0 0 29 29" fill="none" xmlns="http://www.w3.org/2000/svg">
<rect x="0.5" y="0.5" width="28" height="28" rx="5.5" stroke="#D8DADC"/>
<path d="M11.1539 14.4969C11.1539 14.606 11.1736 14.7068 11.213 14.7992C11.2569 14.8915 11.3226 14.9797 11.4103 15.0637L16.5314 19.8628C16.6804 20.0056 16.8601 20.0769 17.0704 20.0769C17.2151 20.0769 17.3444 20.0434 17.4583 19.9762C17.5766 19.9132 17.6709 19.825 17.741 19.7117C17.8111 19.6025 17.8462 19.4807 17.8462 19.3464C17.8462 19.1448 17.7651 18.9664 17.6029 18.811L12.988 14.4969L17.6029 10.1827C17.7651 10.0274 17.8462 9.85101 17.8462 9.65367C17.8462 9.51511 17.8111 9.39125 17.741 9.28208C17.6709 9.17292 17.5766 9.08684 17.4583 9.02386C17.3444 8.95669 17.2151 8.9231 17.0704 8.9231C16.8601 8.9231 16.6804 8.99237 16.5314 9.13093L11.4103 13.93C11.3226 14.014 11.2569 14.1022 11.213 14.1946C11.1736 14.2869 11.1539 14.3877 11.1539 14.4969Z" fill="black"/>
</svg>
