<svg width="36" height="36" viewBox="0 0 36 36" fill="none" xmlns="http://www.w3.org/2000/svg">
<g filter="url(#filter0_b_2037_1664)">
<circle cx="18" cy="18" r="18" fill="black" fill-opacity="0.08"/>
</g>
<path d="M18 26.1075C17.4825 26.1075 16.995 25.845 16.65 25.3875L15.525 23.8875C15.5025 23.8575 15.4125 23.82 15.375 23.8125H15C11.8725 23.8125 9.9375 22.965 9.9375 18.75V15C9.9375 11.685 11.685 9.9375 15 9.9375H21C24.315 9.9375 26.0625 11.685 26.0625 15V18.75C26.0625 22.065 24.315 23.8125 21 23.8125H20.625C20.565 23.8125 20.5125 23.8425 20.475 23.8875L19.35 25.3875C19.005 25.845 18.5175 26.1075 18 26.1075ZM15 11.0625C12.315 11.0625 11.0625 12.315 11.0625 15V18.75C11.0625 22.14 12.225 22.6875 15 22.6875H15.375C15.7575 22.6875 16.1925 22.905 16.425 23.2125L17.55 24.7125C17.8125 25.0575 18.1875 25.0575 18.45 24.7125L19.575 23.2125C19.8225 22.8825 20.2125 22.6875 20.625 22.6875H21C23.685 22.6875 24.9375 21.435 24.9375 18.75V15C24.9375 12.315 23.685 11.0625 21 11.0625H15Z" fill="#333333"/>
<path d="M18 18C17.58 18 17.25 17.6625 17.25 17.25C17.25 16.8375 17.5875 16.5 18 16.5C18.4125 16.5 18.75 16.8375 18.75 17.25C18.75 17.6625 18.42 18 18 18Z" fill="#333333"/>
<path d="M21 18C20.58 18 20.25 17.6625 20.25 17.25C20.25 16.8375 20.5875 16.5 21 16.5C21.4125 16.5 21.75 16.8375 21.75 17.25C21.75 17.6625 21.42 18 21 18Z" fill="#333333"/>
<path d="M15 18C14.58 18 14.25 17.6625 14.25 17.25C14.25 16.8375 14.5875 16.5 15 16.5C15.4125 16.5 15.75 16.8375 15.75 17.25C15.75 17.6625 15.42 18 15 18Z" fill="#333333"/>
<defs>
<filter id="filter0_b_2037_1664" x="-1" y="-1" width="38" height="38" filterUnits="userSpaceOnUse" color-interpolation-filters="sRGB">
<feFlood flood-opacity="0" result="BackgroundImageFix"/>
<feGaussianBlur in="BackgroundImageFix" stdDeviation="0.5"/>
<feComposite in2="SourceAlpha" operator="in" result="effect1_backgroundBlur_2037_1664"/>
<feBlend mode="normal" in="SourceGraphic" in2="effect1_backgroundBlur_2037_1664" result="shape"/>
</filter>
</defs>
</svg>
