<svg width="25" height="25" viewBox="0 0 25 25" fill="none" xmlns="http://www.w3.org/2000/svg">
<path d="M21.8163 8.98268L15.2663 3.74267C13.9863 2.72267 11.9863 2.71267 10.7163 3.73267L4.16626 8.98268C3.22626 9.73268 2.65626 11.2327 2.85626 12.4127L4.11626 19.9527C4.40626 21.6427 5.97626 22.9727 7.68626 22.9727H18.2863C19.9763 22.9727 21.5763 21.6127 21.8663 19.9427L23.1263 12.4027C23.3063 11.2327 22.7363 9.73268 21.8163 8.98268ZM13.7363 18.9727C13.7363 19.3827 13.3963 19.7227 12.9863 19.7227C12.5763 19.7227 12.2363 19.3827 12.2363 18.9727V15.9727C12.2363 15.5627 12.5763 15.2227 12.9863 15.2227C13.3963 15.2227 13.7363 15.5627 13.7363 15.9727V18.9727Z" fill="#F1BF98"/>
</svg>
