<svg width="25" height="25" viewBox="0 0 25 25" fill="none" xmlns="http://www.w3.org/2000/svg">
<path d="M12.1737 11.8427C12.0737 11.8327 11.9537 11.8327 11.8437 11.8427C9.46373 11.7627 7.57373 9.81266 7.57373 7.41266C7.57373 4.96266 9.55373 2.97266 12.0137 2.97266C14.4637 2.97266 16.4537 4.96266 16.4537 7.41266C16.4437 9.81266 14.5537 11.7627 12.1737 11.8427Z" stroke="#717568" stroke-width="1.5" stroke-linecap="round" stroke-linejoin="round"/>
<path d="M7.1737 15.5327C4.7537 17.1527 4.7537 19.7927 7.1737 21.4027C9.9237 23.2427 14.4337 23.2427 17.1837 21.4027C19.6037 19.7827 19.6037 17.1427 17.1837 15.5327C14.4437 13.7027 9.9337 13.7027 7.1737 15.5327Z" stroke="#717568" stroke-width="1.5" stroke-linecap="round" stroke-linejoin="round"/>
</svg>
